<?xml version="1.0" encoding="utf-8"?>
<!-- Generator: Adobe Illustrator 21.1.0, SVG Export Plug-In . SVG Version: 6.00 Build 0)  -->
<svg version="1.1" id="Layer_1" xmlns="http://www.w3.org/2000/svg" xmlns:xlink="http://www.w3.org/1999/xlink" x="0px" y="0px"
	 viewBox="0 0 300 300" style="enable-background:new 0 0 300 300;" xml:space="preserve">
<style type="text/css">
	.st0{clip-path:url(#SVGID_2_);fill:#FFFFFF;}
	.st1{clip-path:url(#SVGID_4_);}
</style>
<g>
	<defs>
		<rect id="SVGID_1_" x="0.1" width="299.8" height="300"/>
	</defs>
	<clipPath id="SVGID_2_">
		<use xlink:href="#SVGID_1_"  style="overflow:visible;"/>
	</clipPath>
	<path class="st0" d="M176.4,150c0-14.6-11.8-26.4-26.4-26.4c-14.6,0-26.4,11.8-26.4,26.4c0,14.6,11.8,26.4,26.4,26.4
		C164.6,176.4,176.4,164.6,176.4,150 M201.8,107.7c0,5.3-4.3,9.5-9.5,9.5c-5.3,0-9.5-4.3-9.5-9.5s4.3-9.5,9.5-9.5
		C197.5,98.2,201.8,102.4,201.8,107.7 M190.7,150c0,22.5-18.2,40.7-40.7,40.7s-40.7-18.2-40.7-40.7s18.2-40.7,40.7-40.7
		S190.7,127.5,190.7,150 M214.5,182c0.4-8.3,0.5-10.9,0.5-32s-0.1-23.7-0.5-32c-0.4-7.7-1.6-11.9-2.7-14.7c-1.4-3.7-3.2-6.3-5.9-9.1
		c-2.8-2.8-5.4-4.5-9.1-5.9c-2.8-1.1-7-2.4-14.7-2.7c-8.3-0.4-10.9-0.5-32-0.5s-23.7,0.1-32,0.5c-7.7,0.4-11.9,1.6-14.7,2.7
		c-3.7,1.4-6.3,3.2-9.1,5.9c-2.8,2.8-4.5,5.4-5.9,9.1c-1.1,2.8-2.4,7-2.7,14.7c-0.4,8.3-0.5,10.9-0.5,32s0.1,23.7,0.5,32
		c0.4,7.7,1.6,11.9,2.7,14.7c1.4,3.7,3.2,6.3,5.9,9.1c2.8,2.8,5.4,4.5,9.1,5.9c2.8,1.1,7,2.4,14.7,2.7c8.4,0.4,10.9,0.5,32,0.5
		s23.7-0.1,32-0.5c7.7-0.4,11.9-1.6,14.7-2.7c3.7-1.4,6.3-3.2,9.1-5.9c2.8-2.8,4.5-5.4,5.9-9.1C212.8,193.9,214.1,189.7,214.5,182
		 M229.2,150c0,21.5-0.1,24.2-0.5,32.7c-0.4,8.4-1.7,14.2-3.7,19.2c-2,5.2-4.7,9.6-9.1,14c-4.4,4.4-8.8,7.1-14,9.1
		c-5,2-10.8,3.3-19.2,3.7c-8.5,0.4-11.1,0.5-32.7,0.5s-24.2-0.1-32.7-0.5c-8.4-0.4-14.2-1.7-19.2-3.7c-5.2-2-9.6-4.7-14-9.1
		c-4.4-4.4-7.1-8.8-9.1-14c-2-5-3.3-10.8-3.7-19.2c-0.4-8.5-0.5-11.1-0.5-32.7s0.1-24.2,0.5-32.7c0.4-8.4,1.7-14.2,3.7-19.2
		c2-5.2,4.7-9.6,9.1-14c4.4-4.4,8.8-7.1,14-9.1c5-2,10.8-3.3,19.2-3.7c8.4-0.4,11.1-0.5,32.7-0.5s24.2,0.1,32.7,0.5
		c8.4,0.4,14.2,1.7,19.2,3.7c5.2,2,9.6,4.7,14,9.1c4.4,4.4,7.1,8.8,9.1,14c2,5,3.3,10.8,3.7,19.2C229.1,125.8,229.2,128.5,229.2,150
		 M299.9,150C299.9,67.2,232.8,0,150,0S0.1,67.2,0.1,150S67.2,300,150,300S299.9,232.8,299.9,150"/>
</g>
<g>
	<defs>
		<path id="SVGID_3_" d="M123.6,150c0,14.6,11.8,26.4,26.4,26.4c14.6,0,26.4-11.8,26.4-26.4c0-14.6-11.8-26.4-26.4-26.4
			C135.4,123.6,123.6,135.4,123.6,150 M109.3,150c0-22.5,18.2-40.7,40.7-40.7s40.7,18.2,40.7,40.7s-18.2,40.7-40.7,40.7
			S109.3,172.5,109.3,150 M182.8,107.7c0-5.3,4.3-9.5,9.5-9.5c5.3,0,9.5,4.3,9.5,9.5c0,5.3-4.3,9.5-9.5,9.5
			C187,117.2,182.8,113,182.8,107.7 M118,85.5c-7.7,0.4-11.9,1.6-14.7,2.7c-3.7,1.4-6.3,3.1-9.1,5.9c-2.8,2.8-4.5,5.4-5.9,9.1
			c-1.1,2.8-2.4,7-2.7,14.7c-0.4,8.3-0.5,10.9-0.5,32s0.1,23.7,0.5,32c0.4,7.7,1.6,11.9,2.7,14.7c1.4,3.7,3.1,6.3,5.9,9.1
			c2.8,2.8,5.4,4.5,9.1,5.9c2.8,1.1,7,2.4,14.7,2.7c8.3,0.4,10.9,0.5,32,0.5s23.7-0.1,32-0.5c7.7-0.4,11.9-1.6,14.7-2.7
			c3.7-1.4,6.3-3.1,9.1-5.9c2.8-2.8,4.5-5.4,5.9-9.1c1.1-2.8,2.4-7,2.7-14.7c0.4-8.3,0.5-10.9,0.5-32s-0.1-23.7-0.5-32
			c-0.4-7.7-1.6-11.9-2.7-14.7c-1.4-3.7-3.1-6.3-5.9-9.1c-2.8-2.8-5.4-4.5-9.1-5.9c-2.8-1.1-7-2.4-14.7-2.7
			c-8.3-0.4-10.9-0.5-32-0.5S126.3,85.1,118,85.5 M117.3,228.8c-8.4-0.4-14.2-1.7-19.2-3.7c-5.2-2-9.6-4.7-14-9.1
			c-4.4-4.4-7.1-8.8-9.1-14c-2-5-3.3-10.8-3.7-19.2c-0.4-8.4-0.5-11.1-0.5-32.7s0.1-24.2,0.5-32.7c0.4-8.4,1.7-14.2,3.7-19.2
			c2-5.2,4.7-9.6,9.1-14c4.4-4.4,8.8-7.1,14-9.1c5-2,10.8-3.3,19.2-3.7c8.4-0.4,11.2-0.5,32.7-0.5c21.5,0,24.2,0.1,32.7,0.5
			c8.4,0.4,14.2,1.7,19.2,3.7c5.2,2,9.6,4.7,14,9.1c4.4,4.4,7.1,8.8,9.1,14c2,5,3.3,10.8,3.7,19.2c0.4,8.4,0.5,11.1,0.5,32.7
			s-0.1,24.2-0.5,32.7c-0.4,8.4-1.7,14.2-3.7,19.2c-2,5.2-4.7,9.6-9.1,14c-4.4,4.4-8.8,7.1-14,9.1c-5,2-10.8,3.3-19.2,3.7
			c-8.4,0.4-11.1,0.5-32.7,0.5C128.5,229.2,125.8,229.1,117.3,228.8 M150,0C67.2,0,0.1,67.2,0.1,150S67.2,300,150,300
			c82.8,0,149.9-67.2,149.9-150S232.8,0,150,0z"/>
	</defs>
	<clipPath id="SVGID_4_">
		<use xlink:href="#SVGID_3_"  style="overflow:visible;"/>
	</clipPath>
	<path class="st1" d="M150-2351.6c814.7,0,911.3,3.1,1233,17.8c297.5,13.6,459.1,63.3,566.6,105.1
		c142.4,55.4,244.1,121.5,350.8,228.2c106.8,106.8,172.9,208.4,228.3,350.9c41.8,107.5,91.5,269.1,105.1,566.6
		c14.7,321.8,17.8,418.3,17.8,1233c0,814.7-3.1,911.3-17.8,1233c-13.6,297.5-63.3,459.1-105.1,566.6
		c-55.4,142.4-121.5,244.1-228.3,350.8c-106.8,106.8-208.4,172.9-350.8,228.3c-107.5,41.8-269.1,91.5-566.6,105.1
		c-321.7,14.7-418.2,17.8-1233,17.8c-814.8,0-911.3-3.1-1233-17.8c-297.5-13.6-459.1-63.3-566.6-105.1
		c-142.4-55.4-244.1-121.5-350.8-228.3c-106.8-106.8-172.9-208.4-228.3-350.8c-41.8-107.5-91.5-269.1-105.1-566.6
		c-14.7-321.8-17.8-418.3-17.8-1233c0-814.8,3.1-911.3,17.8-1233c13.6-297.5,63.3-459.1,105.1-566.6
		c55.4-142.4,121.5-244.1,228.3-350.8c106.8-106.8,208.4-172.9,350.8-228.3c107.5-41.8,269.1-91.5,566.6-105.1
		C-761.3-2348.5-664.8-2351.6,150-2351.6 M150-2901.4c-828.7,0-932.6,3.5-1258.1,18.4c-324.8,14.8-546.6,66.4-740.7,141.8
		c-200.7,78-370.8,182.3-540.5,352c-169.6,169.6-274,339.8-351.9,540.5c-75.4,194.1-127,415.9-141.8,740.7
		c-14.8,325.5-18.4,429.4-18.4,1258.1c0,828.7,3.5,932.6,18.4,1258.1c14.8,324.8,66.4,546.6,141.8,740.7
		c78,200.7,182.3,370.8,351.9,540.5c169.6,169.6,339.8,274,540.5,352c194.1,75.4,415.9,127,740.7,141.8
		c325.5,14.8,429.4,18.4,1258.1,18.4c828.7,0,932.6-3.5,1258.1-18.4c324.8-14.8,546.6-66.4,740.7-141.8
		c200.7-78,370.8-182.3,540.5-352c169.6-169.6,274-339.8,352-540.5c75.4-194.1,127-415.9,141.8-740.7
		c14.9-325.5,18.4-429.4,18.4-1258.1c0-828.7-3.5-932.6-18.4-1258.1c-14.8-324.8-66.4-546.6-141.8-740.7
		c-78-200.7-182.3-370.8-352-540.5c-169.6-169.6-339.8-274-540.5-352c-194.1-75.4-415.9-127-740.7-141.8
		C1082.6-2897.8,978.7-2901.4,150-2901.4"/>
	<path class="st1" d="M150-1416.9c-865.4,0-1566.9,701.5-1566.9,1566.9c0,865.4,701.5,1566.9,1566.9,1566.9
		c865.4,0,1566.9-701.5,1566.9-1566.9C1716.9-715.4,1015.4-1416.9,150-1416.9 M150,1167.1c-561.7,0-1017.1-455.4-1017.1-1017.1
		c0-561.7,455.4-1017.1,1017.1-1017.1c561.7,0,1017.1,455.4,1017.1,1017.1C1167.1,711.7,711.7,1167.1,150,1167.1"/>
	<path class="st1" d="M2145-1478.8c0,202.2-163.9,366.2-366.2,366.2c-202.2,0-366.2-163.9-366.2-366.2s163.9-366.2,366.2-366.2
		C1981-1845,2145-1681,2145-1478.8"/>
</g>
</svg>
