<?xml version="1.0" encoding="utf-8"?>
<!-- Generator: Adobe Illustrator 21.1.0, SVG Export Plug-In . SVG Version: 6.00 Build 0)  -->
<svg version="1.1" id="Layer_1" xmlns="http://www.w3.org/2000/svg" xmlns:xlink="http://www.w3.org/1999/xlink" x="0px" y="0px"
	 viewBox="0 0 300 300" style="enable-background:new 0 0 300 300;" xml:space="preserve">
<style type="text/css">
	.st0{clip-path:url(#SVGID_2_);fill:#FFFFFF;}
</style>
<g>
	<defs>
		<rect id="SVGID_1_" y="0.3" width="299.7" height="299.7"/>
	</defs>
	<clipPath id="SVGID_2_">
		<use xlink:href="#SVGID_1_"  style="overflow:visible;"/>
	</clipPath>
	<path class="st0" d="M111.7,118.7H77.8v102.1h33.9V118.7z M149.9,300C67.1,300,0,232.9,0,150.1S67.1,0.3,149.9,0.3
		s149.9,67.1,149.9,149.9S232.6,300,149.9,300 M94.7,104.8c11.8,0,19.2-7.8,19.2-17.6c-0.2-10-7.4-17.6-19-17.6
		c-11.6,0-19.2,7.6-19.2,17.6c0,9.8,7.4,17.6,18.7,17.6H94.7z M234,220.8v-58.5c0-31.3-16.7-45.9-39-45.9c-18,0-26.1,9.9-30.6,16.9
		v-14.5h-33.9c0.4,9.6,0,102.1,0,102.1h33.9v-57c0-3.1,0.2-6.1,1.1-8.3c2.4-6.1,8-12.4,17.4-12.4c12.3,0,17.2,9.4,17.2,23.1v54.6
		H234z"/>
</g>
</svg>
