<?xml version="1.0" encoding="utf-8"?>
<!-- Generator: Adobe Illustrator 28.0.0, SVG Export Plug-In . SVG Version: 6.00 Build 0)  -->
<svg version="1.1" id="Layer_1" xmlns="http://www.w3.org/2000/svg" xmlns:xlink="http://www.w3.org/1999/xlink" x="0px" y="0px"
	 viewBox="0 0 150 150" style="enable-background:new 0 0 150 150;" xml:space="preserve">
<style type="text/css">
	.st0{fill:#FFFFFF;}
</style>
<g>
	<polygon class="st0" points="75.6,68.4 54,37.5 42.5,37.5 69.2,75.8 72.6,80.6 72.6,80.6 95.5,113.4 107,113.4 79,73.2 	"/>
	<path class="st0" d="M75,0.3c-41.4,0-75,33.6-75,75c0,41.4,33.6,75,75,75s75-33.6,75-75C150,33.9,116.4,0.3,75,0.3z M92,118.8
		L68.8,85.1l-29,33.7h-7.5l33.2-38.6L32.3,31.9h25.3l21.9,31.9L107,31.9h7.5L82.9,68.7h0l34.4,50.1H92z"/>
</g>
</svg>
